<?xml version="1.0" encoding="utf-8"?>
<!-- Generator: Adobe Illustrator 19.1.0, SVG Export Plug-In . SVG Version: 6.00 Build 0)  -->
<svg version="1.1" id="Layer_1" xmlns="http://www.w3.org/2000/svg" xmlns:xlink="http://www.w3.org/1999/xlink" x="0px" y="0px"
	 viewBox="0 0 100 100" style="enable-background:new 0 0 100 100;" xml:space="preserve">
<style type="text/css">
	.st0{fill:#010101;}
</style>
<path class="st0" d="M50,0C22.4,0,0,22.4,0,50s22.4,50,50,50s50-22.4,50-50S77.6,0,50,0z M70.9,53.3L53.3,72.1
	c-0.8,1-2.2,1.5-3.3,1.5c-1.3,0-2.5-0.5-3.3-1.3l-1-1c-1.8-1.8-2-4.8-0.2-6.9l7-8H28.8c-2.7,0-4.8-2.2-4.8-4.8v-3.2
	c0-2.7,2.2-4.8,4.8-4.8h23.6l-7.4-8c-1.8-2-1.7-5,0.2-6.9l1-1c1.8-1.8,5-1.8,6.7,0l18.1,19.1C72.7,48.5,72.7,51.5,70.9,53.3z"/>
</svg>
