<?xml version="1.0" encoding="utf-8"?>
<!-- Generator: Adobe Illustrator 19.0.0, SVG Export Plug-In . SVG Version: 6.00 Build 0)  -->
<svg version="1.1" id="Layer_1" xmlns="http://www.w3.org/2000/svg" xmlns:xlink="http://www.w3.org/1999/xlink" x="0px" y="0px"
	 viewBox="0 0 200 100" style="enable-background:new 0 0 200 100;" xml:space="preserve">
<style type="text/css">
	.st0{fill:#42B794;}
</style>
<g>
	<g id="XMLID_308_">
		<path id="XMLID_309_" class="st0" d="M59.2,23l-3.5-0.2l0.1-2.3l3.2,0.2l0-0.6l-3.2-0.2l0.1-2.2l3.5,0.2l0-0.6L55.3,17L55,23.3
			l4.2,0.2L59.2,23z M49.4,24l-0.5-2.8l3.3-0.5l0.5,2.8l0.7-0.1l-1-6.2l-0.7,0.1l0.4,2.8l-3.3,0.5l-0.4-2.8l-0.7,0.1l1,6.2L49.4,24z
			 M43.1,20l2,5.3l0.7-0.3l-2-5.3l1.8-0.7l-0.2-0.5l-4.3,1.6l0.2,0.5L43.1,20z M37,30.3l-3-3.9l3.5,1.7l0.5-0.4l-0.7-3.8l3,3.9
			l0.5-0.4l-3.8-5l-0.5,0.4l0.8,4.6l-4.2-2.1l-0.5,0.4l3.8,5L37,30.3z M29.2,33.5l0.8,0.6c0.6,0.5,1.3,0.7,2,0.7
			c0.7,0,1.3-0.4,1.8-1c0.5-0.7,0.7-1.3,0.6-2c-0.1-0.7-0.5-1.3-1.1-1.8l-0.8-0.6c-0.6-0.5-1.3-0.7-2-0.7c-0.7,0-1.3,0.4-1.8,1
			c-0.5,0.7-0.7,1.3-0.6,2C28.2,32.4,28.6,33,29.2,33.5z M29.2,30.1c0.4-0.5,0.9-0.7,1.4-0.7s1,0.2,1.5,0.6l0.8,0.7
			c0.5,0.4,0.8,0.8,0.9,1.4c0.1,0.5,0,1-0.4,1.5C33,34,32.5,34.2,32,34.2c-0.5,0-1-0.2-1.5-0.6L29.6,33c-0.5-0.4-0.8-0.8-0.9-1.4
			C28.6,31.1,28.8,30.6,29.2,30.1z M83.1,46.1l0.1,0.7l2.8-0.3l0.4,3.1l0.6-0.1l-0.4-3.1l2.3-0.3l0.4,3.3l0.6-0.1l-0.5-4L83.1,46.1z
			 M63.3,50.5c0-4.3-3.5-7.8-7.8-7.8c-4.3,0-7.8,3.5-7.8,7.8c0,4.3,3.5,7.8,7.8,7.8C59.8,58.3,63.3,54.8,63.3,50.5z M49.1,50.5
			c0-3.5,2.9-6.4,6.4-6.4s6.4,2.9,6.4,6.4c0,3.5-2.9,6.4-6.4,6.4S49.1,54,49.1,50.5z M83.6,38.8c-0.8,0.3-1.3,0.7-1.6,1.3
			c-0.3,0.6-0.4,1.3-0.1,2.1s0.7,1.3,1.4,1.6c0.6,0.3,1.3,0.3,2.1,0l1-0.3c0.8-0.3,1.3-0.7,1.6-1.3c0.3-0.6,0.4-1.3,0.1-2.1
			c-0.3-0.8-0.7-1.3-1.4-1.6c-0.6-0.3-1.3-0.3-2.1,0L83.6,38.8z M86.4,39c0.5,0.2,0.8,0.6,1,1.2c0.2,0.6,0.2,1.1-0.1,1.6
			c-0.3,0.4-0.7,0.8-1.3,1l-1,0.4c-0.6,0.2-1.1,0.2-1.6,0c-0.5-0.2-0.8-0.6-1-1.2c-0.2-0.6-0.2-1.1,0.1-1.6c0.3-0.4,0.7-0.8,1.3-1
			l1-0.4C85.4,38.9,85.9,38.9,86.4,39z M76.9,29.4c0.3,0.5,0.3,1,0,1.4c-0.3,0.3-0.6,0.4-0.9,0.4c-0.4,0-0.7-0.2-1.1-0.6
			c-0.4-0.3-0.6-0.7-0.7-1.1c-0.1-0.4,0-0.7,0.3-1l0.1-0.1l-0.5-0.5L74,28c-0.4,0.4-0.5,0.9-0.4,1.4c0.1,0.6,0.4,1.1,0.9,1.5
			c0.5,0.5,1,0.7,1.6,0.8c0.6,0,1-0.1,1.4-0.6c0.3-0.3,0.4-0.6,0.4-1c0-0.4-0.1-0.7-0.3-1.1l-1-1.6c-0.3-0.5-0.3-0.9,0.1-1.2
			c0.2-0.3,0.5-0.4,0.9-0.3c0.3,0,0.7,0.2,1,0.5c0.4,0.3,0.6,0.7,0.6,1c0,0.4-0.1,0.7-0.3,1l-0.1,0.1l0.5,0.4l0.1-0.1
			c0.4-0.4,0.5-0.9,0.4-1.4c-0.1-0.5-0.4-1-0.8-1.4c-0.5-0.4-1-0.7-1.5-0.7c-0.5,0-0.9,0.1-1.3,0.6c-0.5,0.6-0.6,1.2-0.1,1.9
			L76.9,29.4z M28.1,45.5l-2.7-0.7l0.8-3l-0.6-0.1l-0.8,3L22.6,44l0.8-3.3l-0.6-0.1l-1,3.9l6.1,1.6L28.1,45.5z M66.6,24.9
			c0.6-0.3,1-0.8,1.2-1.4l0.5-1.4c0.2-0.7,0.2-1.3-0.1-1.9c-0.3-0.6-0.8-1-1.5-1.2l-2.2-0.8l-2.1,6l2.2,0.8
			C65.4,25.2,66,25.2,66.6,24.9z M64.9,19l1.5,0.5c0.6,0.2,1,0.5,1.2,0.9c0.2,0.4,0.2,0.9,0,1.4l-0.5,1.4c-0.2,0.5-0.5,0.9-0.9,1.1
			c-0.4,0.2-0.9,0.2-1.5,0l-1.5-0.5L64.9,19z M71.9,28.6l0.3-0.5l-3-1.8l1.2-2l2.7,1.7l0.3-0.5l-2.7-1.7l1.2-1.9l3,1.8l0.3-0.5
			L71.6,21l-3.3,5.4L71.9,28.6z M114.5,46.4c14.9,0,28.8,10,39,10c15.3,0,29.5-7,29.5-7c0.8,0,1.5-0.7,1.5-1.5
			c0-0.8-0.7-1.5-1.5-1.5c0,0-12,8-29.4,8c-10.2,0-22.1-10-39-10c-13.6,0-17.9,2.5-19.1,3.6c-0.2-4-1-7.8-2.4-11.3
			c2.3-1.4,8.5-4.2,21.4-4.2c14.9,0,28.8,12,39,12c15.3,0,28.5-10,28.5-10c0.8,0,1.5-0.7,1.5-1.5c0-0.8-0.7-1.5-1.5-1.5
			c0,0-11,11-28.4,11c-10.2,0-22.1-12-39-12c-15.6,0-21.6,3.4-22.4,3.9c-1.2-2.6-2.6-5.1-4.3-7.4c2.8-1.6,12.4-6.5,26.7-6.5
			c14.9,0,26.8,12,37,12c15.3,0,27.5-9,27.5-9c0.8,0,1.5-0.7,1.5-1.5c0-0.8-0.7-1.5-1.5-1.5c0,0-10,10-27.4,10
			c-10.2,0-20.1-12-37-12c-17.1,0-27.6,6-27.6,6c-0.3,0-0.6,0.1-0.9,0.3C78.8,16,67.8,10.4,55.5,10.4c-22.1,0-40,17.9-40,40
			c0,22.1,17.9,40,40,40c17.2,0,31.8-10.8,37.5-26c0,0,0,0,0,0c0,0,4.4-7,21.5-7c14.9,0,29.8,12,40,12c15.3,0,27.5-7,27.5-7
			c0.8,0,1.5-0.7,1.5-1.5s-0.7-1.5-1.5-1.5c0,0-10,8-27.4,8c-10.2,0-23.1-12-40-12c-12.2,0-18,3.1-20.3,4.8c0.8-3,1.2-6.2,1.2-9.5
			C96.8,49.4,101.2,46.4,114.5,46.4z M91.6,62.3c0,0,0,0.1,0,0.1c-5,15.2-19.3,26.1-36.1,26.1c-21,0-38-17-38-38c0-21,17-38,38-38
			c15.7,0,29.3,9.6,35,23.2c0,0.1,0,0.1,0,0.2c0,0.5,0.2,0.9,0.5,1.1c1.6,4.2,2.5,8.7,2.5,13.5C93.5,54.6,92.8,58.6,91.6,62.3z
			 M57.9,78.3l0.1,0.6l3.2-0.5L62,84l0.7-0.1l-0.9-6.2L57.9,78.3z M68.9,78.2c-0.3-0.8-0.7-1.3-1.3-1.6c-0.6-0.3-1.3-0.3-2.1-0.1
			c-0.7,0.2-1.1,0.6-1.4,1.2c-0.3,0.6-0.3,1.1-0.2,1.7l0.6-0.2c-0.1-0.5-0.1-0.9,0.1-1.3c0.2-0.4,0.5-0.7,1-0.9
			c0.6-0.2,1.1-0.2,1.5,0.1c0.4,0.3,0.8,0.7,1,1.3l0.4,1c0.2,0.6,0.2,1.1,0.1,1.6c-0.2,0.5-0.6,0.8-1.1,1c-0.5,0.2-1,0.2-1.3,0
			c-0.4-0.2-0.7-0.5-0.9-0.9l-0.6,0.2c0.3,0.6,0.7,1,1.2,1.2c0.6,0.2,1.2,0.3,1.8,0c0.8-0.3,1.3-0.7,1.6-1.4c0.3-0.6,0.2-1.3,0-2.1
			L68.9,78.2z M55.7,79.9l-2.9-0.2l-0.5-1.6l-0.7,0l2,6.4l0.7,0l2.7-6.1l-0.7,0L55.7,79.9z M54,83.8l-1-3.6l2.5,0.2L54,83.8z
			 M55.5,63.2c-7,0-12.7-5.7-12.7-12.7c0-1.8,0.4-3.5,1-5c0.2,0,0.3,0.1,0.5,0.1c1.3,0,2.4-1.1,2.4-2.4s-1.1-2.4-2.4-2.4
			c-1.3,0-2.4,1.1-2.4,2.4c0,0.7,0.3,1.3,0.7,1.8c-0.8,1.7-1.2,3.6-1.2,5.6c0,7.7,6.3,14,14,14c3.3,0,6.4-1.2,8.8-3.1l-0.9-1
			C61.2,62.1,58.5,63.2,55.5,63.2z M44.4,42c0.6,0,1.1,0.5,1.1,1.1c0,0.6-0.5,1.1-1.1,1.1c-0.6,0-1.1-0.5-1.1-1.1
			C43.3,42.5,43.8,42,44.4,42z M49.2,79.8l-1.9-0.5l-0.6-2.6L46,76.5l0.7,2.7c-0.4,0-0.8,0.1-1.2,0.4c-0.3,0.3-0.6,0.6-0.7,1
			c-0.2,0.6-0.1,1.1,0.1,1.5c0.3,0.5,0.7,0.8,1.3,1l2.5,0.7l1.7-6.1l-0.7-0.2L49.2,79.8z M48.3,83.1l-1.7-0.5
			c-0.5-0.1-0.8-0.4-1-0.7c-0.2-0.3-0.2-0.7-0.1-1.1c0.1-0.4,0.3-0.7,0.7-0.9c0.3-0.2,0.7-0.2,1.2-0.1l1.7,0.5L48.3,83.1z
			 M55.5,36.5c-3.3,0-6.4,1.2-8.8,3.1l0.9,1c2.2-1.7,4.9-2.7,7.9-2.7c7,0,12.7,5.7,12.7,12.7c0,1.8-0.4,3.5-1,5
			c-0.2,0-0.4-0.1-0.5-0.1c-1.3,0-2.4,1.1-2.4,2.4c0,1.3,1.1,2.4,2.4,2.4c1.3,0,2.4-1.1,2.4-2.4c0-0.7-0.3-1.3-0.7-1.7
			c0.8-1.7,1.2-3.7,1.2-5.7C69.5,42.8,63.2,36.5,55.5,36.5z M66.6,59c-0.6,0-1.1-0.5-1.1-1.1c0-0.6,0.5-1.1,1.1-1.1
			c0.6,0,1.1,0.5,1.1,1.1C67.7,58.5,67.2,59,66.6,59z M84.5,57.4L84.5,57.4c-1.7,0-3,1.3-3,3c0,1.6,1.3,3,3,3h0c1.6,0,3-1.3,3-3
			C87.5,58.7,86.2,57.4,84.5,57.4z M25.5,57.4L25.5,57.4c-1.7,0-3,1.3-3,3c0,1.6,1.3,3,3,3h0c1.6,0,3-1.3,3-3
			C28.5,58.7,27.2,57.4,25.5,57.4z M28.5,35.8c-0.2-0.4-0.5-0.6-0.9-0.8c-0.5-0.3-1-0.3-1.5-0.1c-0.5,0.2-0.9,0.5-1.2,1.1l-1.1,2.3
			l5.7,2.8l0.3-0.6l-2.1-1l0.9-1.7l2.6-0.1l0.4-0.7L28.7,37C28.8,36.6,28.7,36.1,28.5,35.8z M27.9,37.5l-0.8,1.6l-2.6-1.3l0.8-1.6
			c0.2-0.4,0.5-0.7,0.8-0.8c0.4-0.1,0.7-0.1,1.1,0.1c0.4,0.2,0.6,0.5,0.8,0.8C28.2,36.7,28.1,37.1,27.9,37.5z M84.3,32.7l-4.2-0.5
			l2.5-1.8l-0.4-0.6l-5.1,3.7l0.4,0.6l2.5-1.8l-0.8,4.2l0.5,0.7l0.8-4.3l4.2,0.6L84.3,32.7z M55.5,26.4c-13.3,0-24,10.7-24,24
			c0,13.2,10.7,24,24,24c13.3,0,24-10.7,24-24C79.5,37.1,68.8,26.4,55.5,26.4z M55.5,72.5c-12.2,0-22-9.8-22-22c0-12.2,9.8-22,22-22
			c12.2,0,22,9.8,22,22C77.5,62.7,67.7,72.5,55.5,72.5z M44.5,75.8l-1.3,1.1l-2.6-1.4l0.3-1.7l-0.6-0.3l-0.9,6.7l0.6,0.3l5.1-4.4
			L44.5,75.8z M40,79.8l0.6-3.7l2.2,1.2L40,79.8z"/>
	</g>
</g>
</svg>
